<svg width="29" height="29" viewBox="0 0 29 29" fill="none" xmlns="http://www.w3.org/2000/svg">
<g clip-path="url(#clip0_437_12666)">
<g clip-path="url(#clip1_437_12666)">
<g clip-path="url(#clip2_437_12666)">
<path d="M14.5 0C6.50473 0 0 6.50473 0 14.5C0 22.4947 6.50473 29 14.5 29C22.4947 29 29 22.4947 29 14.5C29 6.50473 22.4959 0 14.5 0ZM18.106 15.0105H15.747C15.747 18.7795 15.747 23.4187 15.747 23.4187H12.2513C12.2513 23.4187 12.2513 18.8244 12.2513 15.0105H10.5897V12.0387H12.2513V10.1166C12.2513 8.73995 12.9055 6.58883 15.7791 6.58883L18.3694 6.59876V9.48346C18.3694 9.48346 16.7954 9.48346 16.4893 9.48346C16.1833 9.48346 15.7482 9.63649 15.7482 10.293V12.0393H18.4115L18.106 15.0105Z" fill="#FEFFFF"/>
</g>
</g>
</g>
<defs>
<clipPath id="clip0_437_12666">
<rect width="29" height="29" fill="white"/>
</clipPath>
<clipPath id="clip1_437_12666">
<rect width="29" height="29" fill="white"/>
</clipPath>
<clipPath id="clip2_437_12666">
<rect width="29" height="29" fill="white"/>
</clipPath>
</defs>
</svg>
